<?xml version="1.0" encoding="utf-8"?>
<svg version="1.1" xmlns:xlink="http://www.w3.org/1999/xlink" width="40px" height="50px" xmlns="http://www.w3.org/2000/svg">
  <defs>
    <filter x="430px" y="47px" width="40px" height="50px" filterUnits="userSpaceOnUse" id="filter1">
      <feOffset dx="1" dy="1" in="SourceAlpha" result="shadowOffsetInner" />
      <feGaussianBlur stdDeviation="2.5" in="shadowOffsetInner" result="shadowGaussian" />
      <feComposite in2="shadowGaussian" operator="atop" in="SourceAlpha" result="shadowComposite" />
      <feColorMatrix type="matrix" values="0 0 0 0 0  0 0 0 0 0  0 0 0 0 0  0 0 0 0.698039215686274 0  " in="shadowComposite" />
    </filter>
    <g id="widget2">
      <path d="M 449 90.0369284683536  C 443.2 80.4073405959099  434.5 74.6295878724437  434.5 65  C 434.5 59.9857142857143  437.4 51.5  449 51.5  C 460.6 51.5  463.5 59.9857142857143  463.5 65  C 463.5 74.6295878724437  454.8 80.4073405959099  449 90.0369284683536  Z " fill-rule="nonzero" fill="#009dd9" stroke="none" />
      <path d="M 449 91  C 443 81  434 75  434 65  C 434 59.8  437 51  449 51  C 461 51  464 59.8  464 65  C 464 75  455 81  449 91  Z M 449 89.0738569367072  C 454.6 79.8146811918198  463 74.2591757448874  463 65  C 463 60.1714285714286  460.2 52  449 52  C 437.8 52  435 60.1714285714286  435 65  C 435 74.2591757448874  443.4 79.8146811918198  449 89.0738569367072  Z " fill-rule="nonzero" fill="#ffffff" stroke="none" />
    </g>
  </defs>
  <g transform="matrix(1 0 0 1 -430 -47 )">
    <use xlink:href="#widget2" filter="url(#filter1)" />
    <use xlink:href="#widget2" />
  </g>
</svg>