<?xml version="1.0" standalone="no"?><!DOCTYPE svg PUBLIC "-//W3C//DTD SVG 1.1//EN" "http://www.w3.org/Graphics/SVG/1.1/DTD/svg11.dtd"><svg xmlns:xlink="http://www.w3.org/1999/xlink" xmlns="http://www.w3.org/2000/svg" version="1.1" width="200" height="200" viewBox="0 0 200 200"><defs><style type="text/css"><![CDATA[
@font-face {
  font-family: "ifont";
  src: url("//at.alicdn.com/t/font_1442373896_4754455.eot?#iefix") format("embedded-opentype"), url("//at.alicdn.com/t/font_1442373896_4754455.woff") format("woff"), url("//at.alicdn.com/t/font_1442373896_4754455.ttf") format("truetype"), url("//at.alicdn.com/t/font_1442373896_4754455.svg#ifont") format("svg");
}

]]></style></defs><g class="transform-group"><g transform="scale(0.1953125, 0.1953125)"><path d="M916.095431 64.46829l-806.580179 0c-38.815027 0-70.393233 31.578206-70.393233 70.393233L39.122019 717.39188c0 38.815027 31.578206 70.39221 70.393233 70.39221l332.896856 0 0 128.074957L333.565075 915.859048c-14.128789 0-25.582655 11.453866-25.582655 25.582655s11.453866 25.582655 25.582655 25.582655L692.045609 967.024357c14.129812 0 25.582655-11.453866 25.582655-25.582655s-11.452843-25.582655-25.582655-25.582655L583.198575 915.859048 583.198575 787.78409l332.896856 0c38.815027 0 70.39221-31.577183 70.39221-70.39221L986.487641 134.860501C986.487641 96.046496 954.910459 64.46829 916.095431 64.46829zM109.515253 115.6336l806.580179 0c10.601452 0 19.2269 8.625448 19.2269 19.227923l0 467.328591L90.287329 602.190115 90.287329 134.860501C90.287329 124.259048 98.9138 115.6336 109.515253 115.6336zM532.033265 915.859048l-38.455847 0L493.577419 787.78409l38.455847 0L532.033265 915.859048zM916.095431 736.61878l-806.580179 0c-10.601452 0-19.227923-8.625448-19.227923-19.2269l0-64.037479 845.035002 0 0 64.037479C935.322331 727.993333 926.697907 736.61878 916.095431 736.61878z" fill="#272636"></path></g></g></svg>